<svg xmlns="http://www.w3.org/2000/svg" xmlns:xlink="http://www.w3.org/1999/xlink" version="1.1" id="Layer_1" x="0px" y="0px" width="100%" viewBox="-3 -3 1265 1265" enable-background="new 0 0 1259 1259" xml:space="preserve"><g id="deeditor_bgCarrier" stroke-width="0">
    <rect id="dee_c_e" x="-3" y="-3" width="1265" height="1265" rx="0" fill="#f2f2f2" strokewidth="0"/>
  </g>
<path fill="none" opacity="1.000000" stroke="#000000" stroke-linecap="round" stroke-linejoin="round" stroke-width="3.000000" d=" M626.000000,629.500000   C612.549561,642.382874 600.045166,656.197998 586.585388,669.089111   C572.206604,682.860352 558.559082,697.392334 544.488525,711.488525   C507.355774,748.689087 470.166687,785.833374 433.000031,823.000061   C397.333405,858.666687 361.666748,894.333374 326.000000,930.000000   C221.333374,1034.666626 116.656471,1139.323242 12.044128,1244.044067   C8.545756,1247.546021 4.099357,1250.099365 1.500000,1254.500000  "/>
<path fill="none" opacity="1.000000" stroke="#000000" stroke-linecap="round" stroke-linejoin="round" stroke-width="3.000000" d=" M1.500000,1.500000   C2.176571,2.493397 2.400783,3.581946 3.412115,4.588318   C45.348049,46.318542 87.166664,88.166664 129.000000,130.000000   C292.500000,293.500000 455.999969,457.000031 619.500000,620.500000   C802.166626,803.166687 984.833374,985.833313 1167.500000,1168.500000   C1196.333374,1197.333374 1225.133423,1226.200073 1254.088013,1254.911255   C1255.712036,1256.521484 1256.086182,1259.931763 1259.500000,1259.500000  "/>
<path fill="none" opacity="1.000000" stroke="#000000" stroke-linecap="round" stroke-linejoin="round" stroke-width="3.000000" d=" M1254.500000,1.500000   C1251.244995,2.795572 1249.455811,5.788713 1247.028809,8.031170   C1245.215942,9.706236 1243.739502,11.739498 1241.989624,13.489650   C1040.500610,215.000595 839.001221,416.501251 637.489624,617.989624   C634.072754,621.406067 630.500000,624.666626 627.000000,628.000000  "/>
</svg>