<?xml version="1.0" standalone="no"?>
<!DOCTYPE svg PUBLIC "-//W3C//DTD SVG 20010904//EN"
 "http://www.w3.org/TR/2001/REC-SVG-20010904/DTD/svg10.dtd">
<svg version="1.0" xmlns="http://www.w3.org/2000/svg"
 width="40" height="40" viewBox="0 0 512.000000 512.000000"
 preserveAspectRatio="xMidYMid meet" pointer-events="none">

<g transform="translate(0.000000,512.000000) scale(0.100000,-0.100000)"
fill="#8f8b8b" stroke="none">
<path d="M702 5101 c-179 -44 -328 -163 -417 -332 -52 -99 -66 -165 -72 -340
-7 -201 2 -245 67 -309 105 -106 268 -81 334 51 25 50 26 61 26 201 0 162 9
199 58 251 54 57 82 65 262 68 159 4 167 5 212 32 84 49 124 149 97 244 -16
59 -78 124 -135 141 -65 19 -342 15 -432 -7z"/>
<path d="M1840 5104 c-78 -34 -130 -111 -130 -194 0 -88 38 -152 115 -193 39
-21 51 -22 499 -25 532 -3 537 -3 604 73 96 110 68 265 -59 329 l-53 26 -470
0 c-398 -1 -476 -3 -506 -16z"/>
<path d="M3531 5094 c-123 -62 -155 -217 -66 -322 58 -67 87 -76 281 -82 166
-5 172 -6 210 -32 21 -15 50 -44 64 -65 24 -34 25 -46 30 -207 6 -194 15 -223
82 -281 106 -90 261 -57 323 69 l27 56 -4 187 c-4 156 -9 199 -26 253 -52 160
-176 305 -322 378 -115 58 -191 72 -386 72 -153 0 -162 -1 -213 -26z"/>
<path d="M368 3618 c-21 -5 -58 -28 -83 -50 -76 -67 -76 -72 -73 -604 3 -448
4 -460 25 -499 40 -76 105 -115 188 -115 85 0 160 48 196 125 17 37 19 74 19
511 l0 472 -28 53 c-46 89 -149 134 -244 107z"/>
<path d="M4208 3618 c-21 -5 -58 -28 -82 -50 -69 -60 -76 -95 -76 -365 0 -270
6 -300 70 -364 105 -105 268 -80 334 52 l26 53 0 257 0 257 -28 53 c-46 89
-149 134 -244 107z"/>
<path d="M2903 3184 c-18 -9 -42 -31 -53 -49 -20 -32 -20 -48 -20 -1535 0
-1489 0 -1503 20 -1535 37 -60 116 -81 177 -47 18 9 222 214 454 455 l421 437
557 0 558 0 34 23 c48 31 73 86 64 140 -7 40 -58 94 -1033 1069 -565 566
-1041 1035 -1058 1043 -41 19 -81 19 -121 -1z"/>
<path d="M329 1892 c-39 -20 -62 -41 -84 -77 l-30 -48 0 -181 c0 -207 8 -251
67 -375 57 -120 169 -232 289 -289 124 -59 168 -67 374 -67 179 0 180 0 227
28 121 71 142 234 44 332 -55 54 -97 65 -256 65 -159 0 -201 11 -255 65 -54
54 -65 96 -65 255 0 159 -11 201 -65 255 -69 69 -159 83 -246 37z"/>
<path d="M1840 1264 c-78 -34 -130 -111 -130 -194 0 -88 38 -152 115 -193 38
-21 53 -22 310 -22 l270 0 47 28 c121 71 142 234 44 332 -61 60 -88 65 -372
65 -200 -1 -256 -4 -284 -16z"/>
</g>
</svg>
