<?xml version="1.0" standalone="no"?>
<!DOCTYPE svg PUBLIC "-//W3C//DTD SVG 20010904//EN"
 "http://www.w3.org/TR/2001/REC-SVG-20010904/DTD/svg10.dtd">
<svg version="1.0" xmlns="http://www.w3.org/2000/svg"
 width="23" height="23" viewBox="0 0 512.000000 512.000000"
 preserveAspectRatio="xMidYMid meet">

<g transform="translate(0.000000,512.000000) scale(0.100000,-0.100000)"
fill="#b7b4b4" stroke="none">
<path d="M915 4529 c-181 -25 -381 -110 -522 -223 -488 -394 -524 -1116 -77
-1560 105 -104 283 -216 344 -216 89 0 145 85 108 165 -11 24 -47 50 -151 109
-111 63 -248 220 -308 352 -70 155 -93 363 -56 516 90 371 412 628 789 629
148 0 237 -21 373 -89 153 -76 271 -194 360 -360 35 -64 71 -92 119 -92 62 0
116 53 116 113 0 35 -71 170 -129 248 -105 138 -269 267 -419 330 -171 71
-381 101 -547 78z"/>
<path d="M3517 4170 c-128 -22 -262 -125 -318 -244 -17 -36 -33 -66 -36 -66
-3 0 -17 9 -32 19 -109 78 -321 81 -452 7 -81 -46 -177 -160 -194 -228 -4 -16
-9 -28 -12 -28 -2 0 -38 16 -80 36 -216 104 -486 12 -588 -201 -16 -33 -30
-62 -32 -64 -2 -3 -108 99 -236 227 -257 255 -295 282 -427 301 -146 20 -275
-25 -382 -133 -130 -131 -160 -331 -76 -506 28 -60 98 -133 847 -882 448 -450
813 -818 809 -818 -16 0 -909 -142 -958 -152 -126 -26 -242 -100 -315 -201
-85 -116 -121 -269 -91 -387 30 -116 117 -212 231 -251 55 -19 2391 -21 2501
-2 194 34 404 123 554 234 91 67 412 377 546 527 128 144 211 279 269 440 155
434 61 922 -244 1271 -102 118 -792 875 -864 949 -85 87 -152 128 -244 147
-74 16 -104 17 -176 5z m185 -253 c40 -24 885 -948 975 -1065 190 -251 256
-598 172 -903 -27 -97 -97 -244 -156 -328 -53 -75 -453 -484 -555 -567 -117
-97 -265 -171 -415 -209 -127 -32 -304 -36 -1398 -33 -987 3 -1082 4 -1103 20
-43 29 -56 58 -54 116 3 102 70 200 167 243 24 11 276 55 648 113 334 53 620
102 636 111 39 20 63 82 51 126 -8 26 -228 253 -909 934 -964 965 -925 922
-923 1023 0 60 39 130 90 166 54 38 149 48 203 21 19 -9 306 -289 639 -620
640 -638 634 -633 705 -614 56 16 94 80 80 137 -4 17 -99 120 -265 287 -275
276 -300 309 -300 395 0 146 155 250 288 194 24 -10 130 -107 302 -279 230
-228 271 -264 304 -270 64 -12 131 32 136 90 6 58 -2 69 -148 219 -167 169
-188 205 -180 299 8 102 88 178 194 185 88 6 125 -17 295 -184 144 -142 147
-144 190 -144 51 0 83 18 105 62 23 44 12 90 -34 151 -46 61 -54 82 -54 147 2
157 178 257 314 177z"/>
</g>
</svg>
