<?xml version="1.0" standalone="no"?>
<!DOCTYPE svg PUBLIC "-//W3C//DTD SVG 20010904//EN"
 "http://www.w3.org/TR/2001/REC-SVG-20010904/DTD/svg10.dtd">
<svg version="1.0" xmlns="http://www.w3.org/2000/svg"
 width="23" height="23" viewBox="0 0 512.000000 512.000000"
 preserveAspectRatio="xMidYMid meet">

<g transform="translate(0.000000,512.000000) scale(0.100000,-0.100000)"
fill="#b7b4b4" stroke="none">
<path d="M501 5105 c-178 -39 -348 -172 -429 -336 -72 -146 -72 -140 -72 -896
l0 -673 160 0 159 0 3 678 3 677 26 56 c33 71 87 125 158 158 l56 26 678 3
677 3 0 159 0 160 -677 -1 c-539 0 -691 -3 -742 -14z"/>
<path d="M3200 4960 l0 -159 678 -3 677 -3 56 -26 c71 -33 125 -87 158 -158
l26 -56 3 -677 3 -678 159 0 160 0 0 673 c0 756 0 750 -72 896 -59 119 -160
220 -279 279 -146 72 -140 72 -896 72 l-673 0 0 -160z"/>
<path d="M0 1248 c0 -757 0 -751 72 -897 59 -119 160 -220 279 -279 146 -72
140 -72 897 -72 l672 0 0 160 0 159 -677 3 -678 3 -56 26 c-71 33 -125 87
-158 158 l-26 56 -3 678 -3 677 -159 0 -160 0 0 -672z"/>
<path d="M4798 1243 l-3 -678 -26 -56 c-33 -71 -87 -125 -158 -158 l-56 -26
-677 -3 -678 -3 0 -159 0 -160 673 0 c756 0 750 0 896 72 119 59 220 160 279
279 72 146 72 140 72 897 l0 672 -160 0 -159 0 -3 -677z"/>
</g>
</svg>
