<?xml version="1.0" standalone="no"?>
<!DOCTYPE svg PUBLIC "-//W3C//DTD SVG 20010904//EN"
 "http://www.w3.org/TR/2001/REC-SVG-20010904/DTD/svg10.dtd">
<svg version="1.0" xmlns="http://www.w3.org/2000/svg"
 width="25" height="25" viewBox="0 0 512.000000 512.000000"
 preserveAspectRatio="xMidYMid meet">

<g transform="translate(0.000000,512.000000) scale(0.100000,-0.100000)"
fill="#b7b4b4" stroke="none">
<path d="M1419 4255 c-56 -18 -113 -77 -128 -132 -15 -53 -15 -3073 0 -3126
33 -119 185 -179 304 -120 43 22 64 43 89 88 21 40 21 47 24 713 l3 672 849 0
849 0 3 -672 c3 -666 3 -673 24 -713 48 -89 138 -127 245 -104 66 14 131 73
148 134 16 57 16 3073 0 3130 -17 59 -82 119 -146 134 -122 29 -238 -37 -262
-148 -7 -35 -11 -261 -11 -696 l0 -645 -850 0 -849 0 -3 673 c-3 665 -3 672
-24 712 -12 22 -30 47 -40 56 -57 50 -150 68 -225 44z"/>
</g>
</svg>
