<?xml version="1.0" standalone="no"?>
<!DOCTYPE svg PUBLIC "-//W3C//DTD SVG 20010904//EN"
 "http://www.w3.org/TR/2001/REC-SVG-20010904/DTD/svg10.dtd">
<svg version="1.0" xmlns="http://www.w3.org/2000/svg"
 width="13" height="13" viewBox="0 0 512.000000 512.000000"
 preserveAspectRatio="xMidYMid meet">

<g transform="translate(0.000000,512.000000) scale(0.100000,-0.100000)"
fill="#bcbaba" stroke="none">
<path d="M142 4834 c-161 -80 -189 -294 -54 -416 75 -68 -118 -63 2472 -63
2590 0 2397 -5 2472 63 135 122 107 336 -54 416 l-52 26 -2366 0 -2366 0 -52
-26z"/>
<path d="M207 2809 c-150 -29 -242 -187 -192 -330 33 -92 102 -150 200 -168
82 -15 4608 -15 4690 0 159 29 252 182 200 330 -33 92 -102 150 -200 168 -75
14 -4626 13 -4698 0z"/>
<path d="M215 763 c-59 -13 -91 -29 -127 -61 -135 -122 -107 -336 54 -416 l52
-26 2366 0 2366 0 52 26 c192 95 184 372 -13 461 -38 17 -150 18 -2385 19
-1290 1 -2354 0 -2365 -3z"/>
</g>
</svg>
