<?xml version="1.0" standalone="no"?>
<!DOCTYPE svg PUBLIC "-//W3C//DTD SVG 20010904//EN"
 "http://www.w3.org/TR/2001/REC-SVG-20010904/DTD/svg10.dtd">
<svg version="1.0" xmlns="http://www.w3.org/2000/svg"
 width="25" height="25" viewBox="0 0 512.000000 512.000000"
 preserveAspectRatio="xMidYMid meet">

<g transform="translate(0.000000,512.000000) scale(0.100000,-0.100000)"
fill="#b7b4b4" stroke="none">
<path d="M1603 4029 c-23 -11 -51 -35 -62 -52 -10 -18 -265 -624 -567 -1347
-607 -1455 -575 -1365 -518 -1456 85 -137 282 -143 358 -11 13 23 91 203 172
399 l149 358 571 0 c448 0 573 -3 577 -12 133 -325 323 -768 335 -782 29 -32
93 -56 155 -56 49 0 66 5 111 34 68 43 91 88 91 176 0 63 -15 101 -548 1380
-302 723 -556 1324 -565 1334 -50 56 -181 74 -259 35z m302 -1219 l193 -460
-390 0 c-367 0 -390 1 -384 18 33 88 381 910 385 907 2 -3 91 -212 196 -465z"/>
<path d="M3665 2756 c-298 -68 -536 -283 -636 -574 -33 -95 -34 -101 -34 -262
0 -160 1 -168 33 -260 47 -136 111 -239 212 -340 101 -101 204 -165 340 -212
92 -32 100 -33 260 -33 161 0 167 1 260 33 52 18 115 44 140 58 27 16 46 21
48 14 2 -6 15 -24 29 -41 76 -90 241 -94 319 -7 57 62 54 28 54 788 0 629 -1
703 -16 733 -23 46 -64 86 -103 103 -49 21 -144 18 -190 -6 -36 -18 -84 -65
-93 -90 -2 -7 -21 -2 -48 14 -25 14 -88 39 -140 57 -86 29 -108 33 -235 35
-94 3 -160 -1 -200 -10z m321 -437 c112 -42 190 -114 241 -225 26 -54 28 -69
28 -174 0 -109 -2 -119 -32 -182 -79 -167 -266 -267 -444 -239 -186 30 -330
174 -360 360 -28 176 73 366 236 442 110 52 223 58 331 18z"/>
</g>
</svg>
