<svg xmlns="http://www.w3.org/2000/svg" version="1.0" preserveAspectRatio="xMidYMid meet" viewBox="51.08 102.15 409.18 307.77" width="16" height="16">

<g transform="translate(0.000000,512.000000) scale(0.100000,-0.100000)" fill="#b8b6b6" stroke="none">
<path d="M1660 4085 c-146 -36 -260 -119 -321 -235 -23 -44 -24 -52 -27 -327 l-3 -283 -330 0 c-304 0 -333 -1 -367 -19 -46 -23 -67 -46 -87 -94 -19 -46 -19 -98 0 -144 20 -48 41 -71 87 -94 34 -18 63 -19 368 -19 l330 0 0 -270 c0 -249 2 -273 21 -325 41 -109 172 -213 316 -250 74 -19 251 -19 323 0 137 36 254 125 307 234 l28 56 3 278 3 277 239 0 240 0 2 -777 3 -778 24 -49 c50 -102 175 -195 311 -231 72 -19 240 -19 313 0 137 35 263 130 314 234 l28 56 3 773 3 772 336 0 c321 0 339 1 380 21 121 59 129 250 13 322 -34 21 -46 22 -385 27 l-350 5 -5 280 -5 280 -27 51 c-73 139 -260 234 -458 234 -214 -1 -388 -92 -471 -250 -23 -44 -24 -52 -27 -323 l-3 -277 -242 2 -242 3 -5 285 -5 285 -27 51 c-52 98 -172 182 -313 219 -72 18 -219 18 -295 0z m323 -223 c41 -20 78 -47 94 -69 l28 -36 3 -259 3 -258 -300 0 -301 0 0 253 c0 230 2 255 19 283 32 52 103 97 186 118 11 3 61 4 111 2 80 -2 99 -6 157 -34z m1480 -10 c41 -20 78 -47 94 -69 l28 -36 3 -254 3 -253 -300 0 -301 0 0 248 c0 226 2 250 19 278 32 52 103 97 186 118 11 3 61 4 111 2 80 -2 99 -6 157 -34z"/>
</g>
</svg>