<svg xmlns="http://www.w3.org/2000/svg" version="1.0" preserveAspectRatio="xMidYMid meet" viewBox="91.88 51.47 328.07 409.53" width="15" height="15">

<g transform="translate(0.000000,512.000000) scale(0.100000,-0.100000)" fill="#b8b6b6" stroke="none">
<path d="M2535 4603 c-11 -2 -30 -6 -42 -8 -34 -8 -84 -55 -104 -100 -17 -36 -19 -72 -19 -377 l0 -337 -567 -3 -568 -3 -62 -29 c-228 -105 -324 -459 -199 -731 37 -81 106 -157 177 -196 l64 -34 578 -3 577 -3 0 -238 0 -239 -262 -4 -263 -3 -62 -29 c-99 -45 -178 -141 -224 -272 -29 -83 -37 -246 -15 -338 33 -140 123 -268 228 -323 l53 -28 273 -3 272 -3 0 -319 c0 -201 4 -329 11 -347 24 -64 109 -123 176 -123 81 1 161 61 183 138 6 22 10 164 10 345 l0 307 255 0 c309 0 333 6 431 104 101 102 148 227 147 396 -1 215 -94 390 -248 466 l-60 29 -262 3 -263 4 0 239 0 239 578 2 577 3 50 25 c102 50 195 174 229 306 20 79 21 241 1 318 -36 139 -127 261 -233 313 l-57 28 -572 3 -572 3 -3 349 -3 348 -30 44 c-40 57 -119 93 -180 81z"/>
</g>
</svg>