<svg xmlns="http://www.w3.org/2000/svg" version="1.0" preserveAspectRatio="xMidYMid meet" viewBox="131.21 130.12 1022.67 1018.88" width="15" height="15">
<metadata>
Created by potrace 1.16, written by Peter Selinger 2001-2019
</metadata>
<g transform="translate(0.000000,1280.000000) scale(0.100000,-0.100000)" fill="#b8b6b6" stroke="none">
<path d="M4315 11484 c-273 -42 -521 -160 -699 -333 -100 -97 -149 -166 -225 -318 l-61 -123 0 -3073 0 -3074 41 -89 c110 -237 268 -400 509 -523 478 -246 1082 -219 1525 69 97 63 267 232 314 313 19 32 50 100 70 150 l36 92 -3 3095 -4 3095 -56 103 c-187 344 -493 546 -932 617 -119 19 -391 18 -515 -1z"/>
<path d="M8080 9020 c-389 -49 -732 -242 -906 -510 -23 -36 -65 -111 -93 -167 l-51 -103 0 -1840 0 -1840 51 -103 c68 -135 118 -207 204 -292 398 -399 1124 -500 1664 -232 249 124 413 282 521 504 l50 103 0 1873 0 1874 -50 93 c-71 129 -102 173 -189 263 -91 94 -176 159 -292 221 -103 55 -289 118 -419 141 -113 19 -384 28 -490 15z"/>
<path d="M2506 2243 l-908 -3 -62 -49 c-142 -113 -200 -202 -219 -338 -14 -103 2 -206 48 -300 42 -85 94 -134 208 -199 l79 -44 4707 0 c2945 0 4739 3 4793 9 115 13 185 50 273 142 96 102 108 131 113 267 9 252 -60 383 -257 481 l-81 41 -3892 -2 c-2141 -2 -4302 -4 -4802 -5z"/>
</g>
</svg>