<svg xmlns="http://www.w3.org/2000/svg" version="1.0" preserveAspectRatio="xMidYMid meet" viewBox="51.08 51.37 409.22 408.63" width="15" height="15">

<g transform="translate(0.000000,512.000000) scale(0.100000,-0.100000)" fill="#b8b6b6" stroke="none">
<path d="M658 4601 c-47 -10 -80 -32 -115 -78 -24 -31 -28 -45 -28 -103 0 -83 31 -137 98 -169 l44 -21 1915 2 1916 3 39 31 c57 46 76 86 76 156 -1 73 -33 127 -96 160 l-42 23 -1885 1 c-1037 1 -1901 -1 -1922 -5z"/>
<path d="M1666 4075 c-133 -37 -252 -128 -304 -235 l-27 -55 0 -1225 0 -1225 27 -58 c49 -105 161 -191 302 -232 45 -13 87 -16 194 -13 129 3 142 6 215 37 100 43 184 118 227 203 l30 61 0 1227 0 1227 -31 61 c-51 104 -170 193 -304 228 -64 18 -264 17 -329 -1z"/>
<path d="M3115 4071 c-101 -30 -157 -62 -226 -130 -108 -108 -99 21 -99 -1391 l0 -1226 25 -51 c52 -104 171 -192 305 -228 76 -20 261 -20 331 1 147 43 268 141 308 250 21 55 21 61 19 1277 l-3 1222 -25 50 c-51 105 -170 193 -312 231 -75 20 -248 17 -323 -5z"/>
<path d="M615 873 c-46 -24 -66 -45 -86 -88 -23 -49 -24 -104 -4 -152 20 -48 41 -71 87 -94 36 -18 93 -19 1944 -19 l1908 0 43 21 c128 62 128 266 0 328 l-43 21 -1910 0 c-1723 -1 -1912 -2 -1939 -17z"/>
</g>
</svg>