<svg xmlns="http://www.w3.org/2000/svg" version="1.0" preserveAspectRatio="xMidYMid meet" viewBox="28.5 51.95 454.37 408.78" width="16" height="16">

<g transform="translate(0.000000,512.000000) scale(0.100000,-0.100000)" fill="#b8b6b6" stroke="none">
<path d="M380 4581 c-19 -10 -48 -37 -65 -60 l-30 -43 0 -1916 c0 -1806 1 -1919 17 -1949 40 -73 142 -117 218 -94 54 16 117 74 130 120 8 25 10 631 8 1942 l-3 1906 -29 37 c-15 21 -42 46 -60 57 -42 26 -138 26 -186 0z"/>
<path d="M4570 4593 c-35 -13 -72 -47 -90 -84 -20 -38 -20 -62 -20 -1954 0 -2113 -5 -1947 63 -1999 49 -38 116 -53 167 -37 54 16 117 74 130 120 8 25 10 631 8 1942 l-3 1905 -25 37 c-36 53 -86 77 -156 76 -33 0 -66 -3 -74 -6z"/>
<path d="M1388 4075 c-139 -38 -258 -127 -308 -230 l-25 -50 0 -1235 0 -1235 25 -50 c53 -109 196 -209 334 -234 77 -14 201 -14 268 0 151 32 294 139 337 254 21 56 21 61 21 1265 l0 1209 -22 58 c-41 110 -168 208 -320 249 -66 17 -246 17 -310 -1z"/>
<path d="M3410 4076 c-134 -38 -253 -129 -302 -231 l-28 -60 0 -1226 0 -1226 30 -60 c53 -106 170 -192 307 -228 74 -19 242 -19 316 0 137 36 254 122 307 228 l30 60 0 1226 0 1226 -28 60 c-50 104 -170 195 -307 231 -63 17 -264 17 -325 0z"/>
</g>
</svg>