<svg xmlns="http://www.w3.org/2000/svg" version="1.0" preserveAspectRatio="xMidYMid meet" viewBox="127.43 128.97 1024.48 1023.14" width="15" height="15">

<g transform="translate(0.000000,1280.000000) scale(0.100000,-0.100000)" fill="#b8b6b6" stroke="none">
<path d="M10922 11499 c-134 -26 -265 -146 -319 -292 -26 -70 -33 -1585 -27 -5792 l6 -3830 35 -54 c111 -170 250 -252 430 -252 46 -1 106 6 136 15 109 32 240 143 294 251 l26 50 8 1490 c17 3404 6 7917 -20 8088 -14 87 -40 138 -105 202 -110 111 -290 159 -464 124z"/>
<path d="M1924 9427 c-66 -35 -147 -83 -180 -109 -417 -321 -583 -991 -389 -1575 68 -203 162 -351 321 -503 99 -95 142 -127 258 -190 l79 -44 2926 0 2926 -1 80 32 c132 54 202 101 315 213 162 160 250 297 309 478 53 161 65 261 66 537 0 232 -2 257 -24 340 -108 411 -347 721 -646 836 -69 27 -99 33 -220 40 -77 4 -1391 8 -2920 8 l-2780 0 -121 -62z"/>
<path d="M4975 5791 l-460 -6 -122 -63 c-144 -74 -240 -147 -318 -238 -150 -178 -241 -369 -297 -628 -19 -86 -22 -133 -22 -311 0 -231 14 -327 74 -507 96 -287 292 -525 560 -678 l93 -53 1571 -5 c1637 -5 1774 -2 1886 36 132 46 257 134 378 269 168 187 253 360 298 608 14 79 18 153 19 350 0 232 -2 257 -24 340 -129 491 -445 833 -808 875 -104 12 -2148 20 -2828 11z"/>
</g>
</svg>