<svg xmlns="http://www.w3.org/2000/svg" version="1.0" preserveAspectRatio="xMidYMid meet" viewBox="32.5 51.95 447.5 409.05" width="15" height="15">

<g transform="translate(0.000000,512.000000) scale(0.100000,-0.100000)" fill="#b8b6b6" stroke="none">
<path d="M420 4581 c-19 -10 -48 -37 -65 -60 l-30 -43 0 -1916 c0 -1806 1 -1919 17 -1949 40 -73 142 -117 218 -94 54 16 117 74 130 120 8 25 10 631 8 1942 l-3 1906 -29 37 c-15 21 -42 46 -60 57 -42 26 -138 26 -186 0z"/>
<path d="M4510 4579 c-20 -11 -47 -37 -60 -56 l-25 -37 -3 -1900 c-1 -1046 0 -1916 3 -1934 12 -66 108 -141 180 -142 52 0 131 44 162 91 l28 43 3 1901 2 1901 -27 55 c-37 71 -84 99 -168 99 -42 0 -70 -7 -95 -21z"/>
<path d="M1673 4075 c-136 -37 -256 -127 -304 -230 l-29 -60 0 -1226 0 -1226 30 -60 c39 -78 111 -145 203 -188 85 -41 152 -55 257 -55 107 0 183 16 267 57 89 43 162 113 200 190 l28 58 0 1225 0 1225 -26 56 c-51 109 -189 210 -327 238 -73 15 -236 13 -299 -4z"/>
<path d="M3133 4076 c-135 -33 -262 -128 -311 -233 l-27 -58 0 -1225 0 -1225 28 -58 c38 -77 111 -147 200 -190 84 -41 160 -57 267 -57 105 0 172 14 257 55 95 44 165 110 206 194 l32 66 0 1215 0 1215 -29 62 c-50 109 -171 201 -313 238 -69 18 -237 18 -310 1z"/>
</g>
</svg>