<svg xmlns="http://www.w3.org/2000/svg" version="1.0" preserveAspectRatio="xMidYMid meet" viewBox="51.5 51.81 409.37 409.01" width="15" height="15">

<g transform="translate(0.000000,512.000000) scale(0.100000,-0.100000)" fill="#b8b6b6" stroke="none">
<path d="M661 4598 c-54 -9 -102 -45 -127 -95 -18 -37 -19 -95 -19 -1938 0 -1045 3 -1912 8 -1927 12 -43 63 -95 112 -114 83 -31 174 -2 226 75 l24 35 3 1900 c2 1329 0 1912 -8 1938 -12 41 -51 92 -84 110 -33 18 -87 25 -135 16z"/>
<path d="M1989 3790 c-128 -22 -239 -133 -295 -295 -24 -69 -28 -96 -28 -195 0 -179 41 -289 148 -396 44 -44 77 -67 119 -83 l59 -21 1161 2 1162 3 53 30 c69 38 148 124 184 201 125 268 35 616 -190 726 l-67 33 -1130 1 c-621 1 -1151 -2 -1176 -6z"/>
<path d="M1989 2310 c-128 -22 -239 -133 -295 -295 -24 -69 -28 -96 -28 -195 0 -179 41 -289 148 -396 45 -44 77 -67 120 -83 58 -21 60 -22 725 -19 l666 3 53 30 c69 38 148 124 184 201 125 268 35 616 -190 726 l-67 33 -635 2 c-349 0 -656 -2 -681 -7z"/>
</g>
</svg>