<svg xmlns="http://www.w3.org/2000/svg" version="1.0" preserveAspectRatio="xMidYMid meet" viewBox="50.5 52.37 408.8 407.63" width="14" height="14">

<g transform="translate(0.000000,512.000000) scale(0.100000,-0.100000)" fill="#b8b6b6" stroke="none">
<path d="M648 4591 c-47 -10 -80 -32 -115 -78 -24 -31 -28 -45 -28 -103 0 -83 31 -137 98 -169 l44 -21 1915 2 1916 3 39 31 c57 46 76 86 76 156 -1 73 -33 127 -96 160 l-42 23 -1885 1 c-1037 1 -1901 -1 -1922 -5z"/>
<path d="M1755 3603 c-183 -14 -350 -113 -416 -248 l-24 -50 0 -750 0 -750 24 -45 c83 -158 257 -249 471 -250 208 0 387 96 462 248 l33 67 0 735 0 735 -28 58 c-82 165 -295 268 -522 250z"/>
<path d="M3235 3603 c-194 -15 -371 -126 -424 -266 l-21 -59 2 -1231 3 -1232 24 -45 c83 -158 257 -249 471 -250 208 0 387 96 462 248 l33 67 0 1230 0 1230 -26 56 c-77 164 -297 270 -524 252z"/>
</g>
</svg>