<svg xmlns="http://www.w3.org/2000/svg" fill="none" viewBox="2.75 2.75 18.5 18.5" width="30" height="30"><path d="M4.46814 17.5319C5.62291 19.7154 7.92876 20.5 12 20.5C17.6255 20.5 19.8804 19.002 20.3853 14.3853M4.46814 17.5319C3.77924 16.2292 3.5 14.4288 3.5 12C3.5 5.5 5.5 3.5 12 3.5C18.5 3.5 20.5 5.5 20.5 12C20.5 12.8745 20.4638 13.6676 20.3853 14.3853M4.46814 17.5319L7.58579 14.4142C8.36684 13.6332 9.63317 13.6332 10.4142 14.4142L10.5858 14.5858C11.3668 15.3668 12.6332 15.3668 13.4142 14.5858L15.5858 12.4142C16.3668 11.6332 17.6332 11.6332 18.4142 12.4142L20.3853 14.3853M10.691 8.846C10.691 9.865 9.864 10.692 8.845 10.692C7.827 10.692 7 9.865 7 8.846C7 7.827 7.827 7 8.845 7C9.864 7 10.691 7.827 10.691 8.846Z" stroke="#B7B4B4" stroke-width="1.5" stroke-linecap="round" stroke-linejoin="round"></path></svg>