<svg xmlns="http://www.w3.org/2000/svg" version="1.0" preserveAspectRatio="xMidYMid meet" viewBox="24 66.14 464 380.61" width="15" height="15">

<g transform="translate(0.000000,512.000000) scale(0.100000,-0.100000)" fill="#b8b6b6" stroke="none">
<path d="M382 4449 c-46 -14 -118 -88 -131 -135 -8 -27 -11 -573 -11 -1773 l0 -1735 21 -44 c25 -51 89 -97 149 -107 82 -14 167 32 205 110 l24 50 3 1745 3 1745 -25 45 c-48 84 -149 126 -238 99z"/>
<path d="M4590 4433 c-41 -22 -59 -40 -81 -78 l-27 -50 -4 -1750 c-3 -1733 -3 -1750 17 -1790 11 -22 39 -54 62 -71 98 -75 238 -41 297 72 21 39 21 41 23 1789 l3 1750 -30 51 c-23 40 -41 58 -82 78 -67 33 -112 33 -178 -1z"/>
<path d="M2266 4179 c-52 -12 -113 -47 -131 -76 -17 -25 -753 -3049 -762 -3129 -7 -60 5 -87 50 -111 28 -16 62 -18 287 -18 231 0 259 2 294 19 24 12 43 31 51 50 7 17 41 160 76 318 l63 288 363 0 363 0 5 -23 c3 -12 32 -148 65 -301 67 -312 68 -316 154 -341 63 -19 467 -21 528 -3 53 16 78 49 78 105 0 49 -734 3092 -756 3135 -20 38 -63 65 -130 83 -45 12 -114 15 -309 14 -137 -1 -267 -5 -289 -10z m327 -871 c20 -126 212 -1061 243 -1185 l6 -23 -281 0 c-202 0 -281 3 -281 11 0 6 45 228 100 493 101 485 129 632 151 784 18 125 31 108 62 -80z"/>
</g>
</svg>