<svg fill="none" xmlns="http://www.w3.org/2000/svg" viewBox="2 2 20 20"><g id="SVGRepo_bgCarrier" stroke-width="0"></g><g id="SVGRepo_tracerCarrier" stroke-linecap="round" stroke-linejoin="round"></g><g id="SVGRepo_iconCarrier"> <path d="M3 18H21M3 18L6 21M3 18L6 15M11 12V3H17M15 3V12M10.5 3C10.0404 3 9.58525 3.0776 9.16061 3.22836C8.73597 3.37913 8.35013 3.6001 8.02513 3.87868C7.70012 4.15726 7.44231 4.48797 7.26642 4.85195C7.09053 5.21593 7 5.60603 7 6C7 6.39397 7.09053 6.78407 7.26642 7.14805C7.44231 7.51203 7.70012 7.84274 8.02513 8.12132C8.35013 8.3999 8.73597 8.62087 9.16061 8.77164C9.58525 8.9224 10.0404 9 10.5 9L10.5 3Z" stroke="#b8b6b6" stroke-width="2" stroke-linecap="round" stroke-linejoin="round"></path> </g></svg>