<svg xmlns="http://www.w3.org/2000/svg" version="1.0" preserveAspectRatio="xMidYMid meet" viewBox="90.12 51.99 331.38 408.81" width="14" height="14">

<g transform="translate(0.000000,512.000000) scale(0.100000,-0.100000)" fill="#b8b6b6" stroke="none">
<path d="M2465 4581 c-40 -24 -61 -49 -80 -94 -13 -32 -15 -248 -15 -1927 0 -1684 2 -1895 15 -1928 67 -160 283 -160 350 0 13 33 15 244 15 1928 0 1684 -2 1895 -15 1928 -19 43 -50 79 -87 98 -40 21 -146 18 -183 -5z"/>
<path d="M1250 3814 c-155 -40 -286 -144 -329 -260 -21 -55 -21 -60 -19 -1087 l3 -1032 28 -57 c71 -145 265 -248 467 -248 203 0 397 105 471 255 l24 50 0 1045 0 1045 -28 56 c-52 107 -174 195 -322 234 -74 19 -221 19 -295 -1z"/>
<path d="M3568 3815 c-135 -33 -269 -131 -320 -234 l-23 -46 0 -1055 0 -1055 29 -53 c88 -158 286 -252 501 -238 50 3 110 11 135 19 137 42 249 130 298 234 l27 58 0 1040 0 1040 -25 50 c-53 108 -182 203 -325 240 -73 18 -220 18 -297 0z"/>
</g>
</svg>