<svg fill="none" xmlns="http://www.w3.org/2000/svg" viewBox="2 2 20 20"><g id="SVGRepo_bgCarrier" stroke-width="0"></g><g id="SVGRepo_tracerCarrier" stroke-linecap="round" stroke-linejoin="round"></g><g id="SVGRepo_iconCarrier"> <path d="M21 18H3M21 18L18 21M21 18L18 15M13 3V12M13 3H7M13 3C13.4596 3 13.9148 3.0776 14.3394 3.22836C14.764 3.37913 15.1499 3.6001 15.4749 3.87868C15.7999 4.15726 16.0577 4.48797 16.2336 4.85195C16.4095 5.21593 16.5 5.60603 16.5 6C16.5 6.39397 16.4095 6.78407 16.2336 7.14805C16.0577 7.51203 15.7999 7.84274 15.4749 8.12132C15.1499 8.3999 14.764 8.62087 14.3394 8.77164C13.9148 8.9224 13.4596 9 13 9V3ZM9 3V12" stroke="#b8b6b6" stroke-width="2" stroke-linecap="round" stroke-linejoin="round"></path> </g></svg>