<svg version="1.1" id="Layer_1" xmlns="http://www.w3.org/2000/svg" xmlns:xlink="http://www.w3.org/1999/xlink" x="0px" y="0px"
	 width="100%" viewBox="0 0 512 512" enable-background="new 0 0 512 512" xml:space="preserve">
<path opacity="0" stroke="none" 
	d="
M271.000000,513.000000 
	C180.688583,513.000000 90.877167,513.000000 1.032874,513.000000 
	C1.032874,342.396881 1.032874,171.793777 1.032874,1.095328 
	C171.561432,1.095328 342.122955,1.095328 512.842224,1.095328 
	C512.842224,171.666550 512.842224,342.333252 512.842224,513.000000 
	C432.460419,513.000000 351.980194,513.000000 271.000000,513.000000 
M60.597538,413.097565 
	C56.016487,417.918396 51.155380,422.506805 46.917591,427.612549 
	C39.908333,436.057343 38.679897,445.986603 43.247784,455.615936 
	C52.756111,475.659821 74.674538,478.935120 90.427475,463.189423 
	C144.530273,409.111328 198.618042,355.018188 252.717545,300.936798 
	C254.082520,299.572296 255.517334,298.277710 257.502869,296.398438 
	C259.147430,298.349243 260.329895,299.980164 261.736328,301.387268 
	C316.167664,355.843872 370.605896,410.293610 425.081696,464.705750 
	C434.298035,473.911316 447.171997,475.295105 458.570587,469.345001 
	C468.840271,463.984192 475.685059,449.028442 471.867432,438.316040 
	C469.933929,432.890625 466.771271,427.368530 462.737610,423.307159 
	C408.950836,369.149994 354.910339,315.244873 300.939117,261.270874 
	C299.572388,259.904083 298.275269,258.467743 296.213867,256.291168 
	C298.224792,254.725433 299.957703,253.646713 301.364502,252.241531 
	C340.039215,213.610550 378.681854,174.947464 417.327240,136.287079 
	C433.233093,120.375046 449.112427,104.436424 465.042053,88.548233 
	C477.682190,75.940987 473.843018,54.890369 460.949158,46.196430 
	C449.278839,38.327446 435.005066,39.383904 424.979675,49.397335 
	C370.385193,103.926491 315.833099,158.498077 261.260559,213.049210 
	C259.891876,214.417358 258.455597,215.717941 256.764038,217.321945 
	C241.567291,202.056458 226.785553,187.157990 211.949280,172.314026 
	C171.303589,131.647278 130.602432,91.035881 90.012589,50.313522 
	C84.312462,44.594788 77.748375,41.224594 69.708473,41.030441 
	C58.220543,40.753021 47.962078,47.359859 43.561394,57.637489 
	C38.702248,68.985847 40.722126,80.316132 49.278946,88.880470 
	C103.816841,143.466217 158.375763,198.030945 212.922928,252.607422 
	C214.299194,253.984467 215.619843,255.417114 216.236343,256.061127 
	C164.282745,308.482941 112.690269,360.540375 60.597538,413.097565 
z"/>
<path fill="#B8B6B6" opacity="1.000000" stroke="none" 
	d="
M60.847672,412.847687 
	C112.690269,360.540375 164.282745,308.482941 216.236343,256.061127 
	C215.619843,255.417114 214.299194,253.984467 212.922928,252.607422 
	C158.375763,198.030945 103.816841,143.466217 49.278946,88.880470 
	C40.722126,80.316132 38.702248,68.985847 43.561394,57.637489 
	C47.962078,47.359859 58.220543,40.753021 69.708473,41.030441 
	C77.748375,41.224594 84.312462,44.594788 90.012589,50.313522 
	C130.602432,91.035881 171.303589,131.647278 211.949280,172.314026 
	C226.785553,187.157990 241.567291,202.056458 256.764038,217.321945 
	C258.455597,215.717941 259.891876,214.417358 261.260559,213.049210 
	C315.833099,158.498077 370.385193,103.926491 424.979675,49.397335 
	C435.005066,39.383904 449.278839,38.327446 460.949158,46.196430 
	C473.843018,54.890369 477.682190,75.940987 465.042053,88.548233 
	C449.112427,104.436424 433.233093,120.375046 417.327240,136.287079 
	C378.681854,174.947464 340.039215,213.610550 301.364502,252.241531 
	C299.957703,253.646713 298.224792,254.725433 296.213867,256.291168 
	C298.275269,258.467743 299.572388,259.904083 300.939117,261.270874 
	C354.910339,315.244873 408.950836,369.149994 462.737610,423.307159 
	C466.771271,427.368530 469.933929,432.890625 471.867432,438.316040 
	C475.685059,449.028442 468.840271,463.984192 458.570587,469.345001 
	C447.171997,475.295105 434.298035,473.911316 425.081696,464.705750 
	C370.605896,410.293610 316.167664,355.843872 261.736328,301.387268 
	C260.329895,299.980164 259.147430,298.349243 257.502869,296.398438 
	C255.517334,298.277710 254.082520,299.572296 252.717545,300.936798 
	C198.618042,355.018188 144.530273,409.111328 90.427475,463.189423 
	C74.674538,478.935120 52.756111,475.659821 43.247784,455.615936 
	C38.679897,445.986603 39.908333,436.057343 46.917591,427.612549 
	C51.155380,422.506805 56.016487,417.918396 60.847672,412.847687 
z"/>
</svg>