<svg xmlns="http://www.w3.org/2000/svg" version="1.0" preserveAspectRatio="xMidYMid meet" viewBox="65.28 41.43 380.54 430.07" width="15" height="15">

<g transform="translate(0.000000,512.000000) scale(0.100000,-0.100000)" fill="#b8b6b6" stroke="none">
<path d="M815 4701 c-119 -31 -185 -139 -155 -252 16 -57 81 -123 135 -137 60 -16 3424 -27 3490 -12 75 17 122 53 151 113 37 80 28 149 -29 214 -68 77 91 70 -1837 77 -949 3 -1738 2 -1755 -3z"/>
<path d="M795 3863 c-45 -23 -76 -54 -91 -90 -12 -27 -14 -235 -14 -1213 0 -1284 -3 -1206 53 -1268 50 -54 -19 -52 1811 -52 1206 0 1702 3 1731 11 55 16 92 44 115 89 20 38 20 63 20 1219 0 811 -3 1188 -11 1208 -14 38 -46 71 -91 94 -36 18 -86 19 -1765 19 -1556 -1 -1731 -2 -1758 -17z m3152 -343 c18 -10 40 -31 50 -47 17 -26 18 -76 18 -913 0 -837 -1 -887 -18 -913 -10 -16 -32 -37 -50 -47 -31 -20 -62 -20 -1392 -20 -1330 0 -1361 0 -1392 20 -18 10 -40 31 -50 47 -17 26 -18 76 -18 913 0 837 1 887 18 913 10 16 32 37 50 47 31 20 62 20 1392 20 1330 0 1361 0 1392 -20z"/>
<path d="M815 811 c-51 -13 -93 -39 -118 -73 -79 -106 -48 -247 65 -302 l53 -25 1745 -3 1745 -3 40 21 c118 61 148 213 62 311 -68 77 91 70 -1837 77 -949 3 -1738 2 -1755 -3z"/>
</g>
</svg>