<svg xmlns="http://www.w3.org/2000/svg" version="1.0" preserveAspectRatio="xMidYMid meet" viewBox="14.5 48.16 448.5 412.77" width="15" height="15">

<g transform="translate(0.000000,512.000000) scale(0.100000,-0.100000)" fill="#b8b6b6" stroke="none">
<path d="M280 4619 c-56 -25 -86 -53 -113 -104 l-22 -40 0 -1900 0 -1900 22 -40 c27 -51 57 -79 113 -104 45 -20 53 -21 2105 -20 1695 0 2067 2 2098 13 54 20 101 59 123 103 18 37 19 98 22 1939 l2 1900 -27 55 c-21 40 -40 61 -77 84 l-49 30 -2076 2 c-2072 3 -2076 3 -2121 -18z m3901 -382 c31 -16 51 -36 67 -67 l22 -45 -2 -1566 -3 -1566 -29 -37 c-54 -71 88 -66 -1848 -66 -1731 0 -1752 0 -1793 20 -26 13 -49 34 -63 59 l-22 39 0 1561 c0 1662 -2 1600 46 1643 58 51 -58 48 1830 48 l1751 0 44 -23z"/>
<path d="M1143 3624 c-18 -9 -43 -33 -55 -53 l-23 -36 0 -975 c0 -957 0 -976 20 -1009 11 -18 36 -42 55 -52 32 -18 65 -19 490 -19 436 0 456 1 488 20 18 11 41 34 52 52 20 32 20 53 20 1008 0 955 0 976 -20 1008 -11 18 -34 41 -52 52 -32 19 -51 20 -488 20 -397 0 -459 -3 -487 -16z"/>
<path d="M2712 3620 c-18 -11 -41 -34 -52 -52 -20 -32 -20 -53 -20 -1008 0 -955 0 -976 20 -1008 11 -18 34 -41 52 -52 32 -19 52 -20 486 -20 507 0 501 -1 544 69 l23 36 0 976 0 975 -25 37 c-46 68 -37 67 -542 67 -434 0 -454 -1 -486 -20z"/>
</g>
</svg>