<svg xmlns="http://www.w3.org/2000/svg" version="1.0" preserveAspectRatio="xMidYMid meet" viewBox="24 66.14 464 380.61" width="16" height="16">

<g transform="translate(0.000000,512.000000) scale(0.100000,-0.100000)" fill="#b8b6b6" stroke="none">
<path d="M382 4449 c-46 -14 -118 -88 -131 -135 -8 -27 -11 -573 -11 -1773 l0 -1735 21 -44 c25 -51 89 -97 149 -107 82 -14 167 32 205 110 l24 50 3 1745 3 1745 -25 45 c-48 84 -149 126 -238 99z"/>
<path d="M4590 4433 c-41 -22 -59 -40 -81 -78 l-27 -50 -4 -1750 c-3 -1733 -3 -1750 17 -1790 11 -22 39 -54 62 -71 98 -75 238 -41 297 72 21 39 21 41 23 1789 l3 1750 -30 51 c-23 40 -41 58 -82 78 -67 33 -112 33 -178 -1z"/>
<path d="M1336 4397 c-48 -27 -75 -62 -86 -113 -6 -22 -10 -751 -10 -1730 0 -1830 -2 -1761 52 -1811 62 -56 -16 -53 1267 -53 811 0 1188 3 1208 11 38 14 71 46 94 91 18 36 19 86 19 1760 0 1661 -1 1724 -19 1764 -10 23 -36 54 -57 70 l-37 29 -1196 2 -1196 3 -39 -23z m2139 -377 c70 -43 65 61 65 -1467 0 -1316 -1 -1380 -18 -1412 -10 -19 -34 -43 -53 -53 -32 -17 -80 -18 -909 -18 -829 0 -877 1 -909 18 -19 10 -43 34 -53 53 -17 32 -18 96 -18 1414 0 1318 1 1382 18 1414 10 19 34 43 53 53 32 17 80 18 913 18 863 0 879 0 911 -20z"/>
</g>
</svg>