<svg xmlns="http://www.w3.org/2000/svg" viewBox="9.64 125.92 428.48 216.21" height="34" width="34">  <rect x="10.139" y="126.418" width="427.477" height="215.213" style="fill: rgb(183, 180, 180); paint-order: fill; stroke: rgb(183, 180, 180);" rx="27.123" ry="27.123"></rect>  <path d="M 198.207 209.061 L 212.309 209.061 L 234.363 261.645 L 219.735 261.645 L 204.883 222.788 L 189.73 261.645 L 175.628 261.645 Z M 189.13 241.842 L 219.81 241.842 L 219.81 252.193 L 189.13 252.193 Z" transform="matrix(1.240879, 0, 0, 1.33311, -104.819963, -80.123574)" style="fill: rgb(46, 47, 49);"></path>  <path d="M 270.057 209.061 Q 276.058 209.061 280.409 210.711 Q 284.76 212.362 287.16 215.287 Q 289.561 218.213 289.561 222.338 Q 289.561 226.464 287.123 229.54 Q 284.685 232.615 280.559 233.74 Q 285.51 234.715 288.398 238.316 Q 291.286 241.917 291.286 247.018 Q 291.286 251.518 288.811 254.819 Q 286.335 258.119 281.797 259.882 Q 277.259 261.645 271.033 261.645 L 245.078 261.645 L 245.078 209.061 Z M 269.307 229.99 Q 272.158 229.99 273.808 228.602 Q 275.458 227.214 275.458 224.739 Q 275.458 222.263 273.808 220.913 Q 272.158 219.563 269.307 219.638 L 258.806 219.638 L 258.806 229.99 Z M 269.307 251.143 Q 272.908 251.143 275.008 249.605 Q 277.109 248.068 277.109 245.367 Q 277.109 242.817 275.008 241.317 Q 272.908 239.816 269.307 239.891 L 258.806 239.891 L 258.806 251.143 Z" transform="matrix(1.240879, 0, 0, 1.33311, -104.819963, -80.123574)" style="fill: rgb(46, 47, 49);"></path>  <path d="M 342.823 226.689 Q 340.272 223.464 336.747 221.588 Q 333.221 219.713 329.771 219.713 Q 326.77 219.713 324.145 220.876 Q 321.519 222.038 319.569 224.101 Q 317.619 226.164 316.569 228.977 Q 315.518 231.79 315.518 235.091 Q 315.518 238.391 316.569 241.204 Q 317.619 244.017 319.569 246.117 Q 321.519 248.218 324.145 249.38 Q 326.77 250.543 329.771 250.543 Q 333.071 250.543 336.559 248.855 Q 340.047 247.168 342.823 244.317 L 350.849 252.794 Q 347.999 255.794 344.398 258.007 Q 340.798 260.22 336.859 261.42 Q 332.921 262.62 329.021 262.62 Q 323.095 262.62 318.069 260.557 Q 313.043 258.494 309.33 254.781 Q 305.617 251.068 303.516 246.08 Q 301.416 241.092 301.416 235.241 Q 301.416 229.465 303.516 224.551 Q 305.617 219.638 309.442 215.962 Q 313.268 212.287 318.406 210.261 Q 323.545 208.236 329.546 208.236 Q 333.446 208.236 337.347 209.324 Q 341.248 210.411 344.698 212.437 Q 348.149 214.462 350.774 217.238 Z" transform="matrix(1.240879, 0, 0, 1.33311, -104.819963, -80.123574)" style="fill: rgb(46, 47, 49);"></path></svg>