<!DOCTYPE svg PUBLIC "-//W3C//DTD SVG 1.1//EN" "http://www.w3.org/Graphics/SVG/1.1/DTD/svg11.dtd">

<!-- Uploaded to: SVG Repo, www.svgrepo.com, Transformed by: SVG Repo Mixer Tools -->
<svg fill="#B7B4B4" width="26" height="26" viewBox="0 0 24 24" xmlns="http://www.w3.org/2000/svg" transform="rotate(180)">

<g id="SVGRepo_bgCarrier" stroke-width="0"/>

<g id="SVGRepo_tracerCarrier" stroke-linecap="round" stroke-linejoin="round"/>

<g id="SVGRepo_iconCarrier">

<path d="M22,3a1,1,0,0,1-1,1H9A1,1,0,0,1,9,2H21A1,1,0,0,1,22,3ZM21,8H3a1,1,0,0,0,0,2H21a1,1,0,0,0,0-2Zm0,6H3a1,1,0,0,0,0,2H21a1,1,0,0,0,0-2Zm0,6H3a1,1,0,0,0,0,2H21a1,1,0,0,0,0-2Z"/>

</g>

</svg>