<?xml version="1.0" encoding="UTF-8" standalone="no" ?>
<!DOCTYPE svg PUBLIC "-//W3C//DTD SVG 1.1//EN" "http://www.w3.org/Graphics/SVG/1.1/DTD/svg11.dtd">
<svg xmlns="http://www.w3.org/2000/svg" xmlns:xlink="http://www.w3.org/1999/xlink" version="1.1" width="500" height="500" viewBox="0 0 500 500" xml:space="preserve">
<desc>Created with Fabric.js 5.3.0</desc>
<defs>
</defs>
<g transform="matrix(29.327121748 0 0 29.327121748 249.8111888112 249.2446058987)" id="Yu2P9SOgZIZ0p_Dly-0Da"  >
<path style="stroke: rgb(184,182,182); stroke-width: 0.00024; stroke-dasharray: none; stroke-linecap: butt; stroke-dashoffset: 0; stroke-linejoin: miter; stroke-miterlimit: 4; fill: rgb(184,182,182); fill-rule: evenodd; opacity: 1;"  transform=" translate(-12, -12.5)" d="M 7 5 C 7.55228 5 8 5.44772 8 6 L 8 11.5 L 16 11.5 L 16 6 C 16 5.44772 16.4477 5 17 5 C 17.5523 5 18 5.44772 18 6 L 18 12.5 L 18 19 C 18 19.5523 17.5523 20 17 20 C 16.4477 20 16 19.5523 16 19 L 16 13.5 L 8 13.5 L 8 19 C 8 19.5523 7.55228 20 7 20 C 6.44772 20 6 19.5523 6 19 L 6 12.5 L 6 6 C 6 5.44772 6.44772 5 7 5 Z" stroke-linecap="round" />
</g>
</svg>