<?xml version="1.0" encoding="UTF-8" standalone="no" ?>
<!DOCTYPE svg PUBLIC "-//W3C//DTD SVG 1.1//EN" "http://www.w3.org/Graphics/SVG/1.1/DTD/svg11.dtd">
<svg xmlns="http://www.w3.org/2000/svg" xmlns:xlink="http://www.w3.org/1999/xlink" version="1.1" width="500" height="500" viewBox="0 0 500 500" xml:space="preserve">
<desc>Created with Fabric.js 5.3.0</desc>
<defs>
</defs>
<g transform="matrix(27.7754650369 0 0 27.7754650369 249.9902955181 249.9791853321)" id="QUCqxVljtqOk29fjf9gTE"  >
<path style="stroke: rgb(184,182,182); stroke-width: 2; stroke-dasharray: none; stroke-linecap: round; stroke-dashoffset: 0; stroke-linejoin: round; stroke-miterlimit: 4; fill: none; fill-rule: nonzero; opacity: 1;"  transform=" translate(-12.0004, -12)" d="M 13.4126 15 L 10.5421 10.9335 C 10.0849 10.2858 9.85636 9.96204 9.57524 9.85289 C 9.32941 9.75744 9.05583 9.76296 8.81405 9.86825 C 8.53756 9.98865 8.32224 10.3214 7.89161 10.9869 L 4.25737 16.6035 C 4.16197 16.7509 4.11427 16.8247 4.08048 16.9041 C 4.0505 16.9746 4.02872 17.0483 4.01557 17.1238 C 4.00075 17.2088 4.00073 17.2967 4.00068 17.4723 L 4 20 L 20.0008 20 L 20.0008 17.4604 C 20.0008 17.2891 20.0008 17.2035 19.9867 17.1204 C 19.9742 17.0467 19.9534 16.9746 19.9249 16.9055 C 19.8926 16.8276 19.8471 16.7551 19.7561 16.61 L 18.79 15.0702 C 17.9362 13.7095 17.5093 13.0291 16.9545 12.7811 C 16.4695 12.5642 15.9181 12.5492 15.4221 12.7395 C 14.8547 12.957 14.3915 13.6132 13.4651 14.9256 L 13.4126 15 Z M 13.4126 15 L 16.9545 20 M 20.0008 6 C 20.0008 7.10457 19.1054 8 18.0008 8 C 16.8962 8 16.0008 7.10457 16.0008 6 C 16.0008 4.89543 16.8962 4 18.0008 4 C 19.1054 4 20.0008 4.89543 20.0008 6 Z" stroke-linecap="round" />
</g>
</svg>