<svg xmlns="http://www.w3.org/2000/svg" fill="none" viewBox="2 2 20 20"><g id="SVGRepo_bgCarrier" stroke-width="0"></g><g id="SVGRepo_tracerCarrier" stroke-linecap="round" stroke-linejoin="round"></g><g id="SVGRepo_iconCarrier"> <path fill-rule="evenodd" clip-rule="evenodd" d="M8 3C8 2.44772 8.44772 2 9 2L15 2C15.5523 2 16 2.44772 16 3C16 3.55229 15.5523 4 15 4L13 4L13 20H15C15.5523 20 16 20.4477 16 21C16 21.5523 15.5523 22 15 22H9C8.44772 22 8 21.5523 8 21C8 20.4477 8.44772 20 9 20H11L11 4H9C8.44772 4 8 3.55228 8 3ZM7.788 6L8 6C8.55229 6 9 6.44772 9 7C9 7.55228 8.55229 8 8 8H7.83C6.95898 8 6.36686 8.0008 5.90945 8.03879C5.46401 8.07578 5.23663 8.1428 5.07805 8.22517C4.71277 8.41492 4.41493 8.71276 4.22517 9.07805C4.1428 9.23663 4.07578 9.46401 4.03879 9.90945C4.0008 10.3669 4 10.959 4 11.83V12.17C4 13.041 4.0008 13.6331 4.03879 14.0905C4.07578 14.536 4.1428 14.7634 4.22517 14.9219C4.41493 15.2872 4.71277 15.5851 5.07805 15.7748C5.23663 15.8572 5.46402 15.9242 5.90945 15.9612C6.36686 15.9992 6.95898 16 7.83 16H8C8.55229 16 9 16.4477 9 17C9 17.5523 8.55229 18 8 18H7.78798C6.96946 18 6.29393 18 5.74393 17.9543C5.17258 17.9069 4.64774 17.805 4.1561 17.5497C3.42553 17.1702 2.82985 16.5745 2.45035 15.8439C2.19496 15.3523 2.0931 14.8274 2.04565 14.2561C1.99998 13.7061 1.99999 13.0305 2 12.212V11.788C1.99999 10.9695 1.99998 10.2939 2.04565 9.74393C2.0931 9.17258 2.19496 8.64774 2.45035 8.1561C2.82985 7.42553 3.42553 6.82985 4.1561 6.45035C4.64774 6.19496 5.17258 6.0931 5.74393 6.04565C6.29393 5.99998 6.96947 5.99999 7.788 6ZM18.0905 8.03879C17.6331 8.0008 17.041 8 16.17 8H16C15.4477 8 15 7.55228 15 7C15 6.44772 15.4477 6 16 6L16.212 6C17.0305 5.99999 17.7061 5.99998 18.2561 6.04565C18.8274 6.0931 19.3523 6.19496 19.8439 6.45035C20.5745 6.82985 21.1702 7.42553 21.5497 8.1561C21.805 8.64774 21.9069 9.17258 21.9543 9.74393C22 10.2939 22 10.9695 22 11.788V12.212C22 13.0305 22 13.7061 21.9543 14.2561C21.9069 14.8274 21.805 15.3523 21.5497 15.8439C21.1702 16.5745 20.5745 17.1702 19.8439 17.5497C19.3523 17.805 18.8274 17.9069 18.2561 17.9543C17.7061 18 17.0305 18 16.212 18H16C15.4477 18 15 17.5523 15 17C15 16.4477 15.4477 16 16 16H16.17C17.041 16 17.6331 15.9992 18.0905 15.9612C18.536 15.9242 18.7634 15.8572 18.9219 15.7748C19.2872 15.5851 19.5851 15.2872 19.7748 14.9219C19.8572 14.7634 19.9242 14.536 19.9612 14.0905C19.9992 13.6331 20 13.041 20 12.17V11.83C20 10.959 19.9992 10.3669 19.9612 9.90945C19.9242 9.46401 19.8572 9.23663 19.7748 9.07805C19.5851 8.71277 19.2872 8.41492 18.9219 8.22517C18.7634 8.1428 18.536 8.07578 18.0905 8.03879Z" fill="#B8B6B6"></path> </g></svg>