<?xml version="1.0" encoding="UTF-8" standalone="no" ?>
<!DOCTYPE svg PUBLIC "-//W3C//DTD SVG 1.1//EN" "http://www.w3.org/Graphics/SVG/1.1/DTD/svg11.dtd">
<svg xmlns="http://www.w3.org/2000/svg" xmlns:xlink="http://www.w3.org/1999/xlink" version="1.1" width="500" height="500" viewBox="0 0 500 500" xml:space="preserve">
<desc>Created with Fabric.js 5.3.0</desc>
<defs>
</defs>
<g transform="matrix(30.0744515577 0 0 30.0744515577 250.0400725114 250.4839351253)" id="jMAUjSJWtZc216D1AiY-B"  >
<path style="stroke: none; stroke-width: 1; stroke-dasharray: none; stroke-linecap: butt; stroke-dashoffset: 0; stroke-linejoin: miter; stroke-miterlimit: 4; fill: rgb(184,182,182); fill-rule: evenodd; opacity: 1;"  transform=" translate(-12, -12)" d="M 5 7 C 5 6.44772 5.44772 6 6 6 L 18 6 C 18.5523 6 19 6.44772 19 7 C 19 7.55228 18.5523 8 18 8 L 6 8 C 5.44772 8 5 7.55228 5 7 Z M 5 12 C 5 11.4477 5.44772 11 6 11 L 18 11 C 18.5523 11 19 11.4477 19 12 C 19 12.5523 18.5523 13 18 13 L 6 13 C 5.44772 13 5 12.5523 5 12 Z M 5 17 C 5 16.4477 5.44772 16 6 16 L 18 16 C 18.5523 16 19 16.4477 19 17 C 19 17.5523 18.5523 18 18 18 L 6 18 C 5.44772 18 5 17.5523 5 17 Z" stroke-linecap="round" />
</g>
</svg>